<?xml version="1.0" encoding="UTF-8" standalone="no"?>
<!-- Created with Inkscape (http://www.inkscape.org/) -->

<svg
   version="1.1"
   id="svg1"
   width="466.83542"
   height="436.86243"
   viewBox="0 0 466.83544 436.86244"
   xmlns="http://www.w3.org/2000/svg"
   xmlns:svg="http://www.w3.org/2000/svg">
  <defs
     id="defs1">
    <clipPath
       clipPathUnits="userSpaceOnUse"
       id="clipPath52">
      <path
         d="M 0,512 H 512 V 0 H 0 Z"
         transform="translate(-111.92073,-177.96761)"
         id="path52" />
    </clipPath>
    <clipPath
       clipPathUnits="userSpaceOnUse"
       id="clipPath54">
      <path
         d="M 0,512 H 512 V 0 H 0 Z"
         transform="translate(-339.02433,-151.9698)"
         id="path54" />
    </clipPath>
  </defs>
  <g
     id="layer-MC0"
     transform="translate(-4414.5825,-122.90184)">
    <path
       id="path51"
       d="m 0,0 0.026,-0.048 c 1.158,-2.068 3.169,-3.465 5.566,-3.823 1.758,-0.263 3.552,0.183 5.101,1.057 l 0.373,0.21 c 1.798,1.014 3.613,2.011 5.423,2.986 2.412,1.297 4.846,2.557 7.236,3.746 2.166,1.079 3.669,3.063 4.114,5.495 0.328,1.799 -0.096,3.65 -0.966,5.258 -2.355,4.349 -4.485,8.881 -6.335,13.478 -6.378,15.81 -9.613,32.523 -9.613,49.672 0,36.116 14.274,69.941 40.191,95.244 25.903,25.29 60.096,38.741 96.224,37.871 69.406,-1.667 126.401,-57.245 129.753,-126.528 1.237,-25.602 -4.812,-50.762 -17.495,-72.761 -1.311,-2.273 -0.412,-5.18 1.953,-6.317 v 0 c 6.331,-3.043 12.666,-6.419 18.831,-10.036 v 0 c 2.168,-1.272 4.958,-0.526 6.202,1.658 v 10e-4 c 13.354,23.46 20.719,50.191 21.298,77.303 0.935,43.748 -15.401,85.332 -45.996,117.09 -30.562,31.724 -71.45,49.579 -115.132,50.276 C 102.431,242.58 60.713,225.833 29.174,194.795 -2.37,163.749 -19.743,122.282 -19.743,78.031 c 0,-19.796 3.49,-39.127 10.37,-57.447 C -6.73,13.503 -3.576,6.577 0,0"
       style="fill:#252525;fill-opacity:1;fill-rule:nonzero;stroke:none"
       transform="matrix(1.3333333,0,0,-1.3333333,4455.8943,445.37653)"
       clip-path="url(#clipPath52)" />
    <path
       id="path53"
       d="M 0,0 C -4.018,3.331 -8.135,6.547 -12.335,9.633 -6.692,7.843 -1.127,5.837 4.34,3.622 2.921,2.386 1.473,1.178 0,0 m -29.371,-17.83 -0.023,-0.009 c -4.998,-2.213 -10.226,-4.14 -15.571,-5.743 -1.851,1.678 -3.801,3.375 -5.811,5.06 -5.963,5.052 -12.323,9.862 -18.907,14.3 -7.113,4.785 -14.546,9.189 -22.108,13.098 -2.388,1.224 -4.585,2.307 -6.707,3.308 -4.281,2.033 -8.633,3.926 -13.035,5.673 12.578,0.142 24.996,-2.288 36.618,-7.243 l 0.894,-0.388 c 4.832,-2.133 9.616,-4.447 14.225,-6.883 11.166,-5.874 21.923,-12.733 32.065,-20.441 -0.548,-0.25 -1.094,-0.494 -1.64,-0.732 m -107.288,-0.007 c -8.911,3.93 -17.433,8.885 -25.335,14.728 -1.133,0.838 -2.256,1.694 -3.364,2.569 7.523,-0.721 16.382,-1.787 21.522,-3.161 18.06,-4.78 35.247,-12.212 51.092,-22.095 1.702,-1.056 3.388,-2.141 5.054,-3.25 -16.991,0.582 -33.441,4.345 -48.969,11.209 m 226.057,4.77 C 76.927,-2.262 63.384,7.407 49.15,15.671 42.684,19.431 36.035,22.922 29.4,26.041 -1.178,40.506 -33.819,48.801 -67.69,50.723 v 77.895 h 33.09 c 4.206,0 7.627,3.421 7.627,7.627 v 15.413 c 0,4.207 -3.421,7.628 -7.627,7.628 h -33.09 v 28.453 c 0,4.206 -3.421,7.627 -7.627,7.627 h -15.414 c -4.206,0 -7.627,-3.421 -7.627,-7.627 v -28.453 h -33.071 c -4.206,0 -7.628,-3.421 -7.628,-7.628 v -15.413 c 0,-4.206 3.422,-7.627 7.628,-7.627 h 33.071 V 50.733 c -22.126,-1.27 -43.972,-5.315 -64.937,-12.023 -5.841,-1.854 -11.639,-3.931 -17.219,-6.166 -4.986,-1.977 -10.005,-4.158 -14.915,-6.484 -6.812,-3.221 -13.457,-6.711 -19.746,-10.368 -4.003,-2.321 -7.991,-4.789 -11.839,-7.324 -9.907,-6.466 -19.473,-13.68 -28.433,-21.438 -2.43,-2.106 -3.274,-5.414 -2.149,-8.431 1.126,-3.02 3.934,-4.972 7.153,-4.972 h 24.587 c 1.638,0 3.203,0.517 4.527,1.5 6.891,5.117 14.107,9.871 21.494,14.159 3.248,-3.327 6.667,-6.519 10.181,-9.506 2.051,-1.777 4.201,-3.533 6.377,-5.207 28.904,-22.418 63.57,-34.266 100.253,-34.266 10.429,0 20.889,0.992 31.087,2.949 8.229,1.583 16.352,3.806 24.133,6.604 9.696,3.458 19.1,7.867 27.942,13.097 5.949,3.504 11.707,7.413 17.052,11.572 0.55,0.413 1.099,0.844 1.631,1.294 1.408,1.091 2.883,2.306 4.761,3.918 3.517,3.003 6.946,6.207 10.229,9.552 7.402,-4.295 14.616,-9.05 21.487,-14.164 1.304,-0.969 2.913,-1.502 4.53,-1.502 h 24.568 c 3.218,0 6.026,1.951 7.151,4.969 1.126,3.019 0.282,6.33 -2.149,8.437"
       style="fill:#252525;fill-opacity:1;fill-rule:nonzero;stroke:none"
       transform="matrix(1.3333333,0,0,-1.3333333,4758.6991,480.04027)"
       clip-path="url(#clipPath54)" />
  </g>
</svg>
