<?xml version="1.0" encoding="UTF-8"?>
<svg id="Layer_1" xmlns="http://www.w3.org/2000/svg" version="1.1" viewBox="0 0 512 512">
  <!-- Generator: Adobe Illustrator 29.4.0, SVG Export Plug-In . SVG Version: 2.1.0 Build 152)  -->
  <defs>
    <style>
      .st0 {
        fill: #252525;
      }

      .st1 {
        fill: #fefefe;
      }
    </style>
  </defs>
  <rect class="st1" y="0" width="512" height="512"/>
  <g>
    <path class="st0" d="M111.92,334.03l.03.05c1.16,2.07,3.17,3.46,5.57,3.82,1.76.26,3.55-.18,5.1-1.06l.37-.21c1.8-1.01,3.61-2.01,5.42-2.99,2.41-1.3,4.85-2.56,7.24-3.75,2.17-1.08,3.67-3.06,4.11-5.5.33-1.8-.1-3.65-.97-5.26-2.35-4.35-4.48-8.88-6.33-13.48-6.38-15.81-9.61-32.52-9.61-49.67,0-36.12,14.27-69.94,40.19-95.24,25.9-25.29,60.1-38.74,96.22-37.87,69.41,1.67,126.4,57.24,129.75,126.53,1.24,25.6-4.81,50.76-17.49,72.76-1.31,2.27-.41,5.18,1.95,6.32h0c6.33,3.04,12.67,6.42,18.83,10.04h0c2.17,1.27,4.96.53,6.2-1.66h0c13.35-23.46,20.72-50.19,21.3-77.3.93-43.75-15.4-85.33-46-117.09-30.56-31.72-71.45-49.58-115.13-50.28-44.32-.75-86.04,16-117.58,47.04-31.54,31.05-48.92,72.51-48.92,116.76,0,19.8,3.49,39.13,10.37,57.45,2.64,7.08,5.8,14.01,9.37,20.58Z"/>
    <path class="st0" d="M428.42,373.1c-12.47-10.8-26.01-20.47-40.25-28.74-6.47-3.76-13.12-7.25-19.75-10.37-30.58-14.46-63.22-22.76-97.09-24.68v-77.89h33.09c4.21,0,7.63-3.42,7.63-7.63v-15.41c0-4.21-3.42-7.63-7.63-7.63h-33.09v-28.45c0-4.21-3.42-7.63-7.63-7.63h-15.41c-4.21,0-7.63,3.42-7.63,7.63v28.45h-33.07c-4.21,0-7.63,3.42-7.63,7.63v15.41c0,4.21,3.42,7.63,7.63,7.63h33.07v77.88c-22.13,1.27-43.97,5.32-64.94,12.02-5.84,1.85-11.64,3.93-17.22,6.17-4.99,1.98-10.01,4.16-14.92,6.48-6.81,3.22-13.46,6.71-19.75,10.37-4,2.32-7.99,4.79-11.84,7.32-9.91,6.47-19.47,13.68-28.43,21.44-2.43,2.11-3.27,5.41-2.15,8.43,1.13,3.02,3.93,4.97,7.15,4.97h24.59c1.64,0,3.2-.52,4.53-1.5,6.89-5.12,14.11-9.87,21.49-14.16,3.25,3.33,6.67,6.52,10.18,9.51,2.05,1.78,4.2,3.53,6.38,5.21,28.9,22.42,63.57,34.27,100.25,34.27,10.43,0,20.89-.99,31.09-2.95,8.23-1.58,16.35-3.81,24.13-6.6,9.7-3.46,19.1-7.87,27.94-13.1,5.95-3.5,11.71-7.41,17.05-11.57.55-.41,1.1-.84,1.63-1.29,1.41-1.09,2.88-2.31,4.76-3.92,3.52-3,6.95-6.21,10.23-9.55,7.4,4.3,14.62,9.05,21.49,14.16,1.3.97,2.91,1.5,4.53,1.5h24.57c3.22,0,6.03-1.95,7.15-4.97,1.13-3.02.28-6.33-2.15-8.44ZM202.37,377.87c-8.91-3.93-17.43-8.88-25.33-14.73-1.13-.84-2.26-1.69-3.36-2.57,7.52.72,16.38,1.79,21.52,3.16,18.06,4.78,35.25,12.21,51.09,22.09,1.7,1.06,3.39,2.14,5.05,3.25-16.99-.58-33.44-4.34-48.97-11.21ZM309.65,377.86h-.02c-5,2.22-10.23,4.15-15.57,5.75-1.85-1.68-3.8-3.37-5.81-5.06-5.96-5.05-12.32-9.86-18.91-14.3-7.11-4.78-14.55-9.19-22.11-13.1-2.39-1.22-4.58-2.31-6.71-3.31-4.28-2.03-8.63-3.93-13.04-5.67,12.58-.14,25,2.29,36.62,7.24l.89.39c4.83,2.13,9.62,4.45,14.23,6.88,11.17,5.87,21.92,12.73,32.06,20.44-.55.25-1.09.49-1.64.73ZM339.02,360.03c-4.02-3.33-8.13-6.55-12.33-9.63,5.64,1.79,11.21,3.8,16.67,6.01-1.42,1.24-2.87,2.44-4.34,3.62Z"/>
  </g>
</svg>